PathFileType	4	(X/Y/Z)	C:\Users\willi\Desktop\Data_PaperCallum_v2\17_Akif\Gait05\marker_experimental_temp.trc
DataRate	CameraRate	NumFrames	NumMarkers	Units	OrigDataRate	OrigDataStartFrame	OrigNumFrames
100.000000	100.000000	6	27	mm	100.000000	133	213
Frame#	Time	C7			T10			Clav			Sternum			Right_Back			PCL_CRAN			PCL_RECHTS			PCL_LINKS			RCL_UL_CRAN			RCL_UL_POST			RCL_UL_ANT			RCL_LL_CRAN			RCL_LL_POST			RCL_LL_ANT			Right_Heel			Right_Toe			Right_M5			LCL_UL_CRAN			LCL_UL_POST			LCL_UL_ANT			LCL_LL_CRAN			LCL_LL_POST			LCL_LL_ANT			Left_Heel			Left_Toe			Left_M5			*26			
		X1	Y1	Z1	X2	Y2	Z2	X3	Y3	Z3	X4	Y4	Z4	X5	Y5	Z5	X6	Y6	Z6	X7	Y7	Z7	X8	Y8	Z8	X9	Y9	Z9	X10	Y10	Z10	X11	Y11	Z11	X12	Y12	Z12	X13	Y13	Z13	X14	Y14	Z14	X15	Y15	Z15	X16	Y16	Z16	X17	Y17	Z17	X18	Y18	Z18	X19	Y19	Z19	X20	Y20	Z20	X21	Y21	Z21	X22	Y22	Z22	X23	Y23	Z23	X24	Y24	Z24	X25	Y25	Z25	X26	Y26	Z26	X27	Y27	Z27	

134	1.33	-23.095106124878	1373.406860351563	153.4992218017578	0.7727979421614992	1156.420166015625	163.1589050292969	-170.8686065673829	1311.112426757813	174.4314270019531	-240.7508239746094	1151.2763671875	186.2481689453125	-7.829088211059648	1312.672119140625	34.18071365356445	-15.70138072967534	992.9642333984375	171.1464538574219	-3.565803527832079	933.240478515625	150.9048309326172	-7.621627330780074	934.8093872070313	201.2678680419922	-68.3612442016602	698.12939453125	-2.920702695846554	-38.5278816223145	640.6387329101563	1.189131498336794	-87.40686798095707	636.1002197265625	-9.122705459594721	88.19613647460935	384.5382995605469	15.81343364715576	148.2860870361328	355.1974487304688	19.20867729187011	107.3892211914062	322.0561828613281	20.04432296752929	348.4959106445313	165.4036865234375	114.3417282104492	226.9697113037109	31.09105682373048	122.3667068481445	272.4833984375	27.74913406372072	68.95758819580077	-188.9576873779297	732.21533203125	341.415771484375	-195.26025390625	668.18017578125	334.9444580078125	-239.0744476318359	690.7244262695313	333.6972351074219	-269.1917114257813	364.5580749511719	299.1654357910156	-258.2677917480469	301.4118347167969	299.837890625	-307.2850952148438	312.1658630371094	291.8809814453125	-236.8650054931641	25.66519546508788	214.7055816650391	-443.2630004882813	30.58953475952146	208.850814819336	-400.9876098632813	6.048498630523657	271.1590576171875	-88.1182022094729	726.5311279296875	-3209.908447265625	
135	1.34	-37.09869766235359	1374.416259765625	154.564697265625	-13.77676391601569	1157.378173828125	163.7190246582031	-185.1095733642579	1312.456909179688	174.9000701904297	-255.5187988281251	1152.825927734375	186.3066711425782	-21.53037071228035	1313.90283203125	35.26235961914063	-30.54015159606939	994.1559448242188	171.2269744873047	-18.54790878295903	934.2606811523438	151.2829895019531	-22.47030639648442	936.1305541992188	201.6647033691406	-87.21137237548832	697.4335327148438	-2.972439289093012	-58.55383300781254	639.3690795898438	0.8229377269744909	-107.5369644165039	635.7625732421875	-9.439631462097161	65.16884613037107	384.4968872070313	13.16518878936767	125.8379364013672	356.6193542480469	16.55083465576171	86.00624847412108	322.5312805175781	17.52394485473632	331.6741027832031	177.4375	112.2632446289062	221.5096130371094	33.64821624755861	122.0267791748047	264.8454895019531	34.16006088256837	68.06313323974608	-202.7007598876953	733.7427978515625	342.2688293457031	-208.0773315429688	669.5697021484375	335.475830078125	-252.2003631591797	691.7194213867188	334.656494140625	-278.8758239746094	365.0104675292969	299.6289367675781	-266.4505615234375	302.1810913085938	300.6925964355469	-315.6272583007813	311.697021484375	291.8650512695313	-237.4488067626953	26.48768806457518	214.8693389892578	-444.3433532714844	28.61529350280759	208.4913940429688	-401.4306335449219	5.381652355194067	271.751220703125	-88.11789703369165	726.5309448242188	-3209.9072265625	
136	1.35	-51.03785705566414	1375.653930664063	155.5845336914063	-28.19242858886725	1158.57568359375	164.2871856689453	-199.2555541992188	1313.994873046875	175.2869262695313	-270.1329345703126	1154.548461914063	186.2860717773438	-35.12833404541023	1315.350952148438	36.30773162841797	-45.1889381408692	995.5507202148438	171.3636474609375	-33.33664703369146	935.4998168945313	151.6701049804688	-37.13963317871098	937.63818359375	202.0721588134766	-106.2194290161133	697.0090942382813	-3.142850875854486	-78.90008544921879	638.310791015625	0.4181407094001818	-127.9581298828125	635.766357421875	-9.884653091430657	40.83348846435545	384.5201416015625	10.51721858978271	101.8214950561523	357.9016723632813	13.67353820800781	63.15156936645506	323.0554504394531	15.0681676864624	313.1898498535156	189.2058563232422	110.2063980102539	213.3670806884766	37.04024124145509	121.2851104736328	254.5585479736328	41.44031143188478	66.74400329589842	-215.9669952392578	735.2371826171875	343.0482482910156	-220.3170928955078	670.8717651367188	335.9818725585938	-264.7700195312501	692.5574951171875	335.6346435546875	-287.6547546386719	365.3727111816406	300.0907897949219	-273.6574096679688	302.8107604980469	301.4069213867188	-322.9044189453125	311.0458068847656	291.9110412597656	-237.9520416259766	27.03745460510252	214.9107208251953	-445.098876953125	27.55393028259275	208.335205078125	-401.7195739746094	5.281787872314428	272.3307495117188	-88.1175689697268	726.5307006835938	-3209.90576171875	
137	1.36	-64.90628814697273	1377.097290039063	156.5532073974609	-42.46345138549811	1159.989868164063	164.8667449951172	-213.2984008789063	1315.70068359375	175.5899200439453	-284.5790100097657	1156.41552734375	186.191879272461	-48.61643981933602	1316.989379882813	37.31416320800781	-59.63635253906256	997.123779296875	171.5590057373047	-47.91864776611333	936.9365234375	152.0622711181641	-51.61706924438481	939.3046264648438	202.4860992431641	-125.3094100952149	696.8969116210938	-3.435105085372917	-99.45546722412114	637.5262451171875	-0.03025703877210008	-148.5487670898438	636.15478515625	-10.47071743011474	15.33837509155271	384.6637878417969	7.910671234130858	76.42901611328122	359.1064758300781	10.61911296844482	38.96430206298826	323.6731262207031	12.71895980834961	293.1726379394531	200.3907623291016	108.2304382324219	202.1464996337891	41.17768478393556	120.0568008422851	241.388671875	49.33656692504884	64.99274444580077	-228.7671051025391	736.67626953125	343.7226257324219	-232.0392761230469	672.092529296875	336.4268188476563	-276.8285217285157	693.2521362304688	336.5677490234375	-295.5246887207031	365.6371459960938	300.5287170410156	-279.9097595214844	303.2929992675781	301.9392395019531	-329.165771484375	310.2590026855469	292.0356140136719	-238.3361053466797	27.34879875183104	214.8476867675782	-445.584228515625	27.16407775878903	208.2854461669922	-401.8819580078125	5.542950153350805	272.8167419433594	-88.11723327636743	726.530517578125	-3209.904052734375	
138	1.37	-78.6988601684571	1378.721069335938	157.4660186767578	-56.58209991455085	1161.593872070313	165.4594421386719	-227.2317047119141	1317.546020507813	175.8082427978516	-298.8464050292969	1158.396728515625	186.031723022461	-61.98985290527352	1318.787841796875	38.28000259399415	-73.87567138671879	998.8482666015625	171.8105773925781	-62.28539657592778	938.5465698242188	152.4522705078125	-65.89379882812504	941.1005249023438	202.8990936279297	-144.4135742187501	697.1310424804688	-3.847886562347403	-120.1139602661133	637.0739135742188	-0.5282216072082446	-169.1955261230469	636.9627075195313	-11.20057201385497	-11.13814544677737	384.984619140625	5.386183738708497	49.90002059936521	360.3111267089844	7.461313247680661	13.61674880981443	324.4300537109375	10.50935840606689	271.7621765136719	210.6729125976563	106.405776977539	187.5688934326172	45.89207458496095	118.2864761352539	225.2002868652344	57.5321731567383	62.82909011840819	-241.1205291748047	738.0460815429688	344.2638244628906	-243.3030548095703	673.2454223632813	336.7801513671875	-288.4243774414063	693.8242797851563	337.3955688476563	-302.5035705566406	365.8070068359375	300.9226989746094	-285.2688293457031	303.6393432617188	302.2749938964844	-334.5088195800781	309.4038696289063	292.2427368164063	-238.5860290527344	27.4778480529785	214.7097473144532	-445.8601379394531	27.21069908142087	208.2725219726563	-401.9478454589844	5.983309268951391	273.1669921875	-88.11687469482446	726.5303344726563	-3209.902587890625	
139	1.38	-92.4117507934571	1380.496459960938	158.319091796875	-70.54367828369146	1163.357788085938	166.0651397705078	-241.0510406494141	1319.500366210938	175.9423980712891	-312.9283447265626	1160.46044921875	185.8150177001953	-75.24561309814462	1320.713500976563	39.20446395874024	-87.90468597412114	1000.6953125	172.1110229492188	-76.4331436157227	940.3030395507813	152.8298950195313	-79.96468353271489	942.9953002929688	203.3005981445313	-163.4751892089844	697.7365112304688	-4.376163005828848	-140.7812957763672	637.0031127929688	-1.0823870897293	-189.8002471923828	638.21337890625	-12.06719684600829	-38.3969421386719	385.5347290039063	2.981771945953371	22.50248718261717	361.5936889648438	4.302374839782713	-12.69753074645998	325.3670043945313	8.461382865905762	249.0958862304688	219.7477264404297	104.8056182861328	169.4921875	50.95136260986329	115.9552230834961	205.9593505859375	65.67489624023439	60.29641723632811	-253.0525207519532	739.3387451171875	344.6488342285156	-254.1621704101563	674.346435546875	337.0183715820313	-299.6046752929688	694.2974243164063	338.0676574707031	-308.6296081542969	365.8948669433594	301.2555236816406	-289.8265686035156	303.8768005371094	302.4245300292969	-339.0612487792969	308.5511474609375	292.5158996582031	-238.7092742919922	27.49047088623045	214.5306243896485	-445.9878540039063	27.4887943267822	208.2535858154297	-401.9481506347656	6.46037101745603	273.3730163574219	-88.11650085449243	726.5301513671875	-3209.90087890625	
